<svg id="Layer_1" data-name="Layer 1" xmlns="http://www.w3.org/2000/svg" viewBox="0 0 696.87 203.45">
<!-- Baker Hughes Energy Technology UK Limited Confidential
[Unpublished] Copyright 2022.  Baker Hughes Energy Technology UK Limited.
NOTICE:  All information contained herein is, and remains the property of
Baker Hughes Energy Technology UK Limited, its suppliers, and affiliates,
if any.
The intellectual and technical concepts contained herein are proprietary to
Baker Hughes Energy Technology UK Limited and its suppliers and affiliates
and may be covered by U.S. and Foreign Patents, patents in process, and are
protected by trade secret and copyright law.
Dissemination of this information or reproduction of this material is
strictly forbidden unless prior written permission is obtained from Baker
Hughes Energy Technology UK Limited. -->
<defs><style>.cls-1{fill:none;}.cls-2{fill:#018374;}.cls-3{fill:#02bc94;}.cls-4{fill:#05322b;}</style></defs><title>bh_lg_hrz_rgb_pos</title><rect class="cls-1" width="696.87" height="203.45"/><path class="cls-2" d="M566.69,79.79a6.16,6.16,0,1,1,4.21-11.57,12.87,12.87,0,0,0-8.8,24.18l63.23,23L570.9,135.22A12.87,12.87,0,0,1,562.1,111a19.57,19.57,0,1,0,13.39,36.78l59.38-21.61a11.49,11.49,0,0,0,0-21.6Z"/><path class="cls-3" d="M625.33,88,570.9,68.22a12.87,12.87,0,0,0-8.8,24.18,19.58,19.58,0,0,1,13.39-36.79l59.38,21.61a11.5,11.5,0,0,1,0,21.61l-68.18,24.81a6.16,6.16,0,1,0,4.21,11.58A12.87,12.87,0,0,1,562.1,111l63.23-23"/><path class="cls-4" d="M139.77,124.87H129.39v-4.79h-.32a14.64,14.64,0,0,1-12.45,6.07c-7.42,0-17.4-6-17.4-20.43,0-12.29,8.46-20.12,18.2-20.12a13.44,13.44,0,0,1,11.65,6h.32v-5h10.38ZM120,116.81c5.11,0,9.58-4.47,9.58-10.93,0-6.71-4.15-11.1-9.5-11.1-6.7,0-9.89,5.51-9.89,11S113.27,116.81,120,116.81Zm40.92-7.66-2.47,2.39v13.33H147.65V67.41h10.77V99.57l12.13-12.93h13.09l-15.32,15.73L186,124.87H173ZM253.52,95.9a27.78,27.78,0,0,0-5.11-.48c-6.39,0-9.58,4-9.58,10.86v18.59H228.06V86.64h10.53v5.91h.24c2.08-3.75,6.07-7,11.17-7a14.66,14.66,0,0,1,3.52.32Zm50.84,5.83H283.41v23.14H272V70.44h11.41V91.83h20.95V70.44h11.41v54.43H304.36Zm54.35,23.14H348v-4.79h-.24a12.79,12.79,0,0,1-11.18,6.07c-6.22,0-13.88-3.83-13.88-16.84V86.64h10.77V108c0,5.59,2.64,8.62,6.79,8.62,4.7,0,7.66-3.27,7.66-9.66V86.64h10.77Zm46.11-1.19c0,14.2-6.38,21.7-20.51,21.7-9.27,0-15.84-4.37-18.36-11.72l9.9-3.6c.8,3.67,3.51,6.54,9.1,6.54,6.46,0,9.82-4.07,9.82-11.49v-4.87h-.24a15.08,15.08,0,0,1-12.21,5.51c-9.9,0-18-7.74-18-20.11,0-11.5,7.9-20.2,18.51-20.2a13.64,13.64,0,0,1,11.58,5.83h.4V86.64h10.05ZM385,116.33c5.35,0,9.74-4.39,9.74-10.69,0-6.55-4.23-10.86-9.66-10.86-6.47,0-9.82,5.43-9.82,10.78S378.25,116.33,385,116.33Zm27.43-48.92h10.78v24h.32a12.81,12.81,0,0,1,11.25-6c8.54,0,14.53,5.67,14.53,17.48v22H438.48V103.56c0-5.66-2.71-8.62-7.18-8.62-4.71,0-8.14,3.27-8.14,9.74v20.19H412.38Zm80.91,38.07a18.25,18.25,0,0,1-.16,2.87H464.72a10,10,0,0,0,9.9,9.82,8.75,8.75,0,0,0,7.66-4l8.89,3.23c-3,5-8.31,8.82-16.63,8.82-11.42,0-20.36-8.3-20.36-20.75,0-10.94,7.19-20.11,19.64-20.11C486.43,85.37,493.29,94.78,493.29,105.48ZM464.8,101h17.88a9,9,0,0,0-17.88,0Zm50.74-4.07c-.24-2.72-2-4.31-4.39-4.31-2.56,0-3.91,1.67-3.91,3.35,0,2.16,1.2,3.51,7.66,5.75,8.06,2.63,11,6.7,11,12.21,0,7-5.34,12.29-14.76,12.29-9.74,0-14.37-5.11-14.77-12.53H506c.24,3,1.84,5.19,5.35,5.19a4.08,4.08,0,0,0,4.39-4.07c0-2.64-1.84-4.23-7.58-6.15-7.19-2.31-10.94-5.91-10.94-11.89,0-6.87,5.59-11.41,13.81-11.41,8.46,0,13.17,4.86,14,11.57Zm-293.21,8.54a18.25,18.25,0,0,1-.16,2.87H193.76a10,10,0,0,0,9.89,9.82,8.75,8.75,0,0,0,7.67-4l8.89,3.23c-3,5-8.31,8.82-16.63,8.82-11.42,0-20.36-8.3-20.36-20.75,0-10.94,7.19-20.11,19.64-20.11C215.47,85.37,222.33,94.78,222.33,105.48ZM193.84,101h17.88a9,9,0,0,0-17.88,0ZM54.43,70.44H73.22c11.26,0,18.84,4.55,18.84,13.73,0,6.06-4.39,10.13-9.74,11.41v.16c8.3,1.12,12.61,7,12.61,13.49,0,10.06-8.14,15.64-19,15.64H54.43ZM72.67,79H65.21V92.15h7.85c5.35,0,7.75-2.63,7.75-6.86S77.77,79,72.67,79Zm1.67,21.55H65.21v15.72h9.61c5.59,0,8.62-3,8.62-8C83.44,103.72,80.17,100.53,74.34,100.53Z"/></svg>
